<svg version="1.2" xmlns="http://www.w3.org/2000/svg" viewBox="0 0 1188 250" width="1188" height="250"><style>.a{fill:#6a3d78}.b{fill:#6a3d78;stroke:#fff;stroke-width:8}.c{fill:#fff}</style><path fill-rule="evenodd" class="a" d="m1187.6 126.7c0 4.1-0.4 8.1-1 12.3h-100c3.1 15.4 12.9 23.4 27.5 23.4 10.9 0 19.9-4.7 24.4-12.6h46.1c-9.5 30.7-36.7 49.9-70.5 49.9-42 0-73.1-30.7-73.1-71.8 0-41.3 30.9-71.6 73.1-71.6 43.4 0 73.5 30.9 73.5 70.4zm-100.1-13.4h54.4c-4.1-13.4-13.8-20.7-27.8-20.7-13.5 0-22.9 7.3-26.6 20.7z"/><path class="a" d="m900.8 137.5v-76.8h46.3v74.8c0 14.2 7.7 22.6 20.1 22.6 12.4 0 19.9-8.5 19.9-22.6v-74.8h46.3v76.8c0 37.7-26.5 62.2-66.2 62.2-39.8 0-66.4-24.5-66.4-62.2z"/><path fill-rule="evenodd" class="a" d="m890.4 60.7v183.2h-45.8v-53c-9.5 5.8-20.7 9-32.9 9-41.1 0-70.6-29.9-70.6-71.9 0-41.8 29.3-71.7 70.6-71.7 16 0 30.3 5.5 41.3 15.1l6-10.7zm-42.4 67.3c0-17.6-12.7-30.8-30.1-30.8-17.4 0-30.1 13.2-30.1 30.8 0 17.6 12.8 30.8 30.1 30.8 17.4 0 30.1-13.2 30.1-30.8z"/><path fill-rule="evenodd" class="a" d="m734.9 126.7c0 4.1-0.4 8.1-1 12.3h-99.9c3 15.4 12.8 23.4 27.5 23.4 10.8 0 19.8-4.7 24.3-12.6h46.1c-9.4 30.7-36.7 49.9-70.4 49.9-42.1 0-73.2-30.7-73.2-71.8 0-41.3 30.9-71.6 73.2-71.6 43.3 0 73.4 30.9 73.4 70.4zm-100.1-13.4h54.4c-4.1-13.4-13.8-20.7-27.7-20.7-13.6 0-23 7.3-26.7 20.7z"/><circle class="b" cx="489" cy="125" r="121"/><path fill-rule="evenodd" class="c" d="m557 124.6c0 36.9-27.1 63.3-65.2 63.3h-51.1v-126.3h51.1c38.2 0 65.2 26.1 65.2 63zm-35.7 0c0-18.7-12.4-31.2-31.1-31.2h-14.6v62.6h14.6c18.7 0 31.1-12.8 31.1-31.4z"/><path class="a" d="m331.1 114.2v82.1h-46.4v-75.7c0-15.6-5.9-23.4-17.6-23.4-14.4 0-22.8 10.1-22.8 27.2v71.9h-46.3v-134.6h32.5l6.4 13.9c10-11.2 24.9-17.9 42.4-17.9 31.2 0 51.8 22.2 51.8 56.5z"/><path fill-rule="evenodd" class="a" d="m96.6 200.7c-56.1 0-96.2-38.3-96.2-91.6 0-53.4 40.1-91.7 96.2-91.7 55.9 0 95.8 38.2 95.8 91.7 0 53.4-39.9 91.6-95.8 91.6zm0-44.7c26.5 0 45.8-19.6 45.8-46.9 0-27.4-19.3-47-45.8-47-26.6 0-46.1 19.8-46.1 47 0 27.1 19.5 46.9 46.1 46.9z"/></svg>